<?xml version="1.0" encoding="utf-8"?>
<!-- Generator: Adobe Illustrator 17.0.2, SVG Export Plug-In . SVG Version: 6.00 Build 0)  -->
<svg version="1.2" baseProfile="tiny" id="Layer_1" xmlns="http://www.w3.org/2000/svg" xmlns:xlink="http://www.w3.org/1999/xlink"
	 x="0px" y="0px" width="400px" height="400px" viewBox="0 0 400 400" xml:space="preserve">
<circle fill="#FFFFFF" stroke="#000000" stroke-miterlimit="10" cx="200" cy="200" r="200"/>
<g id="layer2">
	<path id="path3311" fill="none" stroke="#000000" stroke-miterlimit="10" d="M123.424,102.564c-2.429,0-4.769,0.365-7.003,0.981
		l16.504,14.675l-18.489,20.518l-16.86-14.942c-0.331,1.667-0.513,3.366-0.513,5.13c0,14.548,11.813,26.361,26.361,26.361
		c2.78,0,5.446-0.449,7.962-1.249l21.321,18.868c4.05-8.8,10.034-16.324,17.351-21.901l-20.563-18.199
		c0.186-1.259,0.29-2.571,0.29-3.881v-0.178C149.671,114.272,137.899,102.564,123.424,102.564z M250.1,221.837
		c-3.402,9.149-8.837,17.157-15.678,23.328l17.173,15.21c-0.235,1.409-0.379,2.851-0.379,4.327
		c0,14.548,11.813,26.361,26.361,26.361c2.631,0,5.162-0.396,7.56-1.115l-17.173-15.255l18.444-20.384l17.083,15.165
		c0.286-1.556,0.446-3.134,0.446-4.773v-0.223c-0.114-14.475-11.886-26.138-26.361-26.138c-2.639,0-5.179,0.392-7.583,1.115
		L250.1,221.837z"/>
	<path id="path3335" fill="none" stroke="#000000" stroke-miterlimit="10" d="M277.576,102.564
		c-14.476,0-26.247,11.708-26.361,26.183v0.178c0,1.31,0.104,2.622,0.29,3.881l-20.563,18.199
		c7.317,5.576,13.301,13.101,17.351,21.901l21.321-18.868c2.516,0.8,5.182,1.249,7.962,1.249c14.548,0,26.361-11.813,26.361-26.361
		c0-1.764-0.182-3.462-0.513-5.13l-16.86,14.942l-18.489-20.518l16.504-14.675C282.346,102.93,280.005,102.564,277.576,102.564z
		 M150.9,221.837l-19.894,17.619c-2.404-0.723-4.944-1.115-7.583-1.115c-14.476,0-26.247,11.663-26.361,26.138v0.223
		c0,1.638,0.16,3.217,0.446,4.773l17.083-15.165l18.444,20.384l-17.173,15.255c2.398,0.719,4.929,1.115,7.56,1.115
		c14.548,0,26.361-11.813,26.361-26.361c0-1.475-0.144-2.917-0.379-4.327l17.173-15.21
		C159.737,238.993,154.302,230.986,150.9,221.837z"/>
</g>
<g id="layer12">
	<path id="path3383" fill="none" stroke="#000000" stroke-miterlimit="10" d="M200.5,145.072c-27.19,0-49.243,24.43-49.243,54.573
		c0,18.639,8.455,35.094,21.321,44.939c-0.849,1.441-1.339,3.126-1.338,4.929c-0.002,5.302,4.222,9.612,9.434,9.612
		c5.212,0,9.436-4.31,9.434-9.612c0-0.378-0.025-0.749-0.067-1.115h1.294c-0.074,0.471-0.112,0.958-0.112,1.45
		c-0.002,5.123,4.152,9.278,9.278,9.278c5.125,0,9.28-4.154,9.278-9.278c0-0.492-0.038-0.979-0.112-1.45h1.65
		c-0.074,0.471-0.112,0.958-0.112,1.45c-0.002,5.123,4.152,9.278,9.278,9.278c5.125,0,9.28-4.154,9.278-9.278
		c0.001-1.886-0.572-3.643-1.539-5.107c12.98-9.826,21.522-26.359,21.522-45.095C249.743,169.503,227.69,145.072,200.5,145.072z
		 M179.335,185.796c2.767-0.011,5.551,0.86,7.917,2.275c2.028,1.477,3.615,3.499,4.817,5.687c1.044,2.728-0.412,5.844-2.609,7.538
		c-1.676,1.122-3.294,2.434-5.263,3.011c-2.415,0.799-4.693,1.919-6.958,3.055c-1.113,0.63-1.947,1.549-2.23,2.81
		c-0.782,1.271-0.056,2.966-0.914,4.126c-1.301,0.946-2.774-0.187-3.791-1.004c-2.226-1.637-4.182-3.895-4.75-6.668
		c-0.438-2.344-0.924-4.743-0.647-7.137c0.035-2.904,1.424-5.592,3.212-7.806c2.031-2.76,4.979-5.138,8.475-5.576
		C177.499,185.901,178.413,185.8,179.335,185.796z M221.665,185.796c0.922,0.004,1.836,0.105,2.743,0.312
		c3.496,0.438,6.444,2.815,8.475,5.576c1.788,2.214,3.177,4.902,3.212,7.806c0.277,2.394-0.208,4.792-0.647,7.137
		c-0.568,2.773-2.524,5.032-4.75,6.668c-1.017,0.817-2.49,1.949-3.791,1.004c-0.859-1.16-0.132-2.855-0.914-4.126
		c-0.283-1.261-1.118-2.18-2.23-2.81c-2.266-1.137-4.543-2.256-6.958-3.055c-1.97-0.577-3.588-1.889-5.263-3.011
		c-2.198-1.694-3.653-4.811-2.609-7.538c1.202-2.188,2.79-4.21,4.817-5.687C216.114,186.656,218.898,185.785,221.665,185.796z
		 M200.656,213.808c2.637,0.072,5.24,11.006,4.572,15.322c-2.2,6.475-1.792-4.224-4.572-4.349
		c-2.904,0.009-3.442,10.578-4.951,4.371C195.229,224.462,198.252,213.742,200.656,213.808z"/>
</g>
</svg>
